{
  "asset": {
    "generator": "glTF-Transform v4.2.1",
    "version": "2.0"
  },
  "accessors": [
    {
      "type": "VEC3",
      "componentType": 5126,
      "count": 123305,
      "max": [
        0.4611113667488098,
        1.6999998092651367,
        0.2531234323978424
      ],
      "min": [
        -0.4611114263534546,
        2.9331452822134452e-8,
        -0.2531234323978424
      ],
      "bufferView": 0,
      "byteOffset": 0
    },
    {
      "type": "VEC3",
      "componentType": 5126,
      "count": 123305,
      "bufferView": 0,
      "byteOffset": 12
    },
    {
      "type": "VEC2",
      "componentType": 5126,
      "count": 123305,
      "bufferView": 0,
      "byteOffset": 24
    },
    {
      "type": "VEC4",
      "componentType": 5121,
      "count": 123305,
      "bufferView": 0,
      "byteOffset": 32
    },
    {
      "type": "VEC4",
      "componentType": 5126,
      "count": 123305,
      "bufferView": 0,
      "byteOffset": 36
    },
    {
      "type": "SCALAR",
      "componentType": 5125,
      "count": 634029,
      "bufferView": 1,
      "byteOffset": 0
    },
    {
      "type": "MAT4",
      "componentType": 5126,
      "count": 24,
      "bufferView": 2,
      "byteOffset": 0
    }
  ],
  "bufferViews": [
    {
      "buffer": 0,
      "byteOffset": 0,
      "byteLength": 6411860,
      "byteStride": 52,
      "target": 34962
    },
    {
      "buffer": 0,
      "byteOffset": 6411860,
      "byteLength": 2536116,
      "target": 34963
    },
    {
      "buffer": 0,
      "byteOffset": 8947976,
      "byteLength": 1536
    }
  ],
  "samplers": [
    {
      "magFilter": 9729,
      "minFilter": 9987,
      "wrapS": 10497,
      "wrapT": 10497
    }
  ],
  "textures": [
    {
      "source": 0,
      "sampler": 0
    }
  ],
  "images": [
    {
      "mimeType": "image/png",
      "uri": "baseColor.png"
    }
  ],
  "buffers": [
    {
      "uri": "buffer.bin",
      "byteLength": 8949512
    }
  ],
  "materials": [
    {
      "name": "Material_1",
      "doubleSided": true,
      "pbrMetallicRoughness": {
        "baseColorTexture": {
          "index": 0
        }
      },
      "emissiveFactor": [
        1,
        1,
        1
      ],
      "emissiveTexture": {
        "index": 0
      },
      "extensions": {
        "KHR_materials_ior": {
          "ior": 1.4500000476837158
        },
        "KHR_materials_specular": {
          "specularColorFactor": [
            2,
            2,
            2
          ]
        }
      }
    }
  ],
  "meshes": [
    {
      "primitives": [
        {
          "attributes": {
            "POSITION": 0,
            "NORMAL": 1,
            "TEXCOORD_0": 2,
            "JOINTS_0": 3,
            "WEIGHTS_0": 4
          },
          "mode": 4,
          "material": 0,
          "indices": 5
        }
      ]
    }
  ],
  "nodes": [
    {
      "name": "Scene",
      "children": [
        1
      ]
    },
    {
      "name": "Armature",
      "extras": {
        "name": "Armature"
      },
      "scale": [
        0.009999999776482582,
        0.009999999776482582,
        0.009999999776482582
      ],
      "children": [
        2,
        3
      ]
    },
    {
      "name": "char1",
      "extras": {
        "name": "char1"
      },
      "mesh": 0,
      "skin": 0
    },
    {
      "name": "Hips",
      "extras": {
        "name": "Hips"
      },
      "translation": [
        -0.7360838651657104,
        89.98886108398438,
        -0.3036898672580719
      ],
      "rotation": [
        0.5630398906410806,
        -0.43978315380067645,
        0.4947609364180867,
        0.494760986465256
      ],
      "children": [
        4,
        8,
        12
      ]
    },
    {
      "name": "LeftUpLeg",
      "extras": {
        "name": "LeftUpLeg"
      },
      "translation": [
        1.6356993913650513,
        -10.755334854125977,
        11.649089813232422
      ],
      "rotation": [
        0.49230532861909576,
        -0.4939775068526545,
        -0.5057710905240954,
        0.5077570882253892
      ],
      "children": [
        5
      ]
    },
    {
      "name": "LeftLeg",
      "extras": {
        "name": "LeftLeg"
      },
      "translation": [
        -6.37490302324295e-7,
        41.26516342163086,
        0.000003773719072341919
      ],
      "rotation": [
        0.060625100867460244,
        -0.006151229370009733,
        -0.013670750466953973,
        0.9980480299583991
      ],
      "children": [
        6
      ]
    },
    {
      "name": "LeftFoot",
      "extras": {
        "name": "LeftFoot"
      },
      "translation": [
        0.0000023543834686279297,
        24.964492797851562,
        -3.5762786865234375e-7
      ],
      "rotation": [
        -0.2764202421043679,
        0.055829440940161866,
        0.08725808791631844,
        0.955437569637264
      ],
      "children": [
        7
      ]
    },
    {
      "name": "LeftToeBase",
      "extras": {
        "name": "LeftToeBase"
      },
      "translation": [
        -0.000004306435585021973,
        12.251980781555176,
        -3.7997961044311523e-7
      ],
      "rotation": [
        -0.5294966729397992,
        0.004278673861423629,
        0.002663775130240602,
        0.8482970414885732
      ]
    },
    {
      "name": "RightUpLeg",
      "extras": {
        "name": "RightUpLeg"
      },
      "translation": [
        -1.2244518995285034,
        12.011895179748535,
        8.607741355895996
      ],
      "rotation": [
        0.48649690274129326,
        -0.4865719139504347,
        -0.3832183837867656,
        0.6162079369368896
      ],
      "children": [
        9
      ]
    },
    {
      "name": "RightLeg",
      "extras": {
        "name": "RightLeg"
      },
      "translation": [
        -0.000002284068614244461,
        40.327476501464844,
        0.0000019259750843048096
      ],
      "rotation": [
        0.05828984212595965,
        0.00876935684368902,
        0.01539178320527342,
        0.9981425177274731
      ],
      "children": [
        10
      ]
    },
    {
      "name": "RightFoot",
      "extras": {
        "name": "RightFoot"
      },
      "translation": [
        -0.0000016987323760986328,
        26.047996520996094,
        -4.76837158203125e-7
      ],
      "rotation": [
        -0.2746069729603117,
        -0.04669810832131081,
        -0.0773616507737208,
        0.9573011396998719
      ],
      "children": [
        11
      ]
    },
    {
      "name": "RightToeBase",
      "extras": {
        "name": "RightToeBase"
      },
      "translation": [
        4.079192876815796e-7,
        12.250202178955078,
        5.736947059631348e-7
      ],
      "rotation": [
        -0.5295351770397843,
        0.005041191424955216,
        0.003157694840031399,
        0.8482671228041269
      ]
    },
    {
      "name": "Spine02",
      "extras": {
        "name": "Spine02"
      },
      "translation": [
        -0.41124650835990906,
        -1.2565559148788452,
        -8.723437309265137
      ],
      "rotation": [
        0.5731092103106828,
        -0.44979256772039766,
        0.4927012373479927,
        -0.4758970193750333
      ],
      "children": [
        13
      ]
    },
    {
      "name": "Spine01",
      "extras": {
        "name": "Spine01"
      },
      "translation": [
        -1.955777406692505e-8,
        8.823086738586426,
        -5.248002707958221e-7
      ],
      "children": [
        14
      ]
    },
    {
      "name": "Spine",
      "extras": {
        "name": "Spine"
      },
      "translation": [
        2.421438694000244e-8,
        8.823070526123047,
        5.19677996635437e-7
      ],
      "rotation": [
        -0.017075631313526598,
        0.01188693722762196,
        -0.011625019524276239,
        0.9997159508878714
      ],
      "children": [
        15,
        19,
        23
      ]
    },
    {
      "name": "LeftShoulder",
      "extras": {
        "name": "LeftShoulder"
      },
      "translation": [
        5.4979047775268555,
        6.2078633308410645,
        0.1494148075580597
      ],
      "rotation": [
        0.512643737621693,
        0.5247117271905254,
        -0.467102599744268,
        0.49364881036812713
      ],
      "children": [
        16
      ]
    },
    {
      "name": "LeftArm",
      "extras": {
        "name": "LeftArm"
      },
      "translation": [
        0.0000028114754968555644,
        22.889463424682617,
        -2.824481839525106e-7
      ],
      "rotation": [
        0.49135598524702445,
        0.5029229756795464,
        0.35962163673333397,
        0.61344120743016
      ],
      "children": [
        17
      ]
    },
    {
      "name": "LeftForeArm",
      "extras": {
        "name": "LeftForeArm"
      },
      "translation": [
        -0.0000033974647521972656,
        22.816865921020508,
        -1.1920928955078125e-7
      ],
      "rotation": [
        -0.03182423466458639,
        0.08534472380568484,
        0.09174426585844325,
        0.991608030366122
      ],
      "children": [
        18
      ]
    },
    {
      "name": "LeftHand",
      "extras": {
        "name": "LeftHand"
      },
      "translation": [
        4.172325134277344e-7,
        24.32002830505371,
        -2.384185791015625e-7
      ],
      "rotation": [
        -0.42246863204607277,
        0.03694038085609573,
        0.07692834724293353,
        0.902351202459478
      ]
    },
    {
      "name": "RightShoulder",
      "extras": {
        "name": "RightShoulder"
      },
      "translation": [
        -5.4746012687683105,
        5.442375659942627,
        -0.3063521087169647
      ],
      "rotation": [
        -0.5121716906068527,
        0.5251725914678648,
        -0.5047911455808157,
        -0.4550382539639647
      ],
      "children": [
        20
      ]
    },
    {
      "name": "RightArm",
      "extras": {
        "name": "RightArm"
      },
      "translation": [
        -2.0627703634090722e-7,
        21.133207321166992,
        -0.000007666857527510729
      ],
      "rotation": [
        0.48403936029234423,
        -0.4963264651852521,
        -0.33813374014011394,
        0.6364208952716245
      ],
      "children": [
        21
      ]
    },
    {
      "name": "RightForeArm",
      "extras": {
        "name": "RightForeArm"
      },
      "translation": [
        0.0000029802322387695312,
        23.119468688964844,
        0.000002384185791015625
      ],
      "rotation": [
        -0.02533121503732774,
        -0.09832364688665314,
        -0.10537305867818673,
        0.9892357193971877
      ],
      "children": [
        22
      ]
    },
    {
      "name": "RightHand",
      "extras": {
        "name": "RightHand"
      },
      "translation": [
        -0.0000054836273193359375,
        23.265552520751953,
        -9.5367431640625e-7
      ],
      "rotation": [
        -0.4048341070918493,
        -0.042749732118068796,
        -0.08957887904831775,
        0.9089870356676775
      ]
    },
    {
      "name": "neck",
      "extras": {
        "name": "neck"
      },
      "translation": [
        -0.02330344170331955,
        4.536139011383057,
        0.15693393349647522
      ],
      "rotation": [
        0.017295721722888072,
        -0.0020556780277201526,
        0.0025319007404704273,
        0.9998450988411011
      ],
      "children": [
        24
      ]
    },
    {
      "name": "Head",
      "extras": {
        "name": "Head"
      },
      "translation": [
        -1.1707697922247462e-8,
        6.8098859786987305,
        7.361415441664576e-7
      ],
      "rotation": [
        0.2772299746899409,
        -0.00013336070069358506,
        0.009131433829445038,
        0.9607601887389671
      ],
      "children": [
        25,
        26
      ]
    },
    {
      "name": "head_end",
      "extras": {
        "name": "head_end"
      },
      "translation": [
        0.6349567174911499,
        38.4867057800293,
        -19.77519989013672
      ],
      "rotation": [
        -0.23507984407811164,
        2.29328920847739e-8,
        -0.007548137255767219,
        0.9719467539595209
      ]
    },
    {
      "name": "headfront",
      "extras": {
        "name": "headfront"
      },
      "translation": [
        -0.6349582076072693,
        11.305410385131836,
        19.77518653869629
      ],
      "rotation": [
        0.5016768716789105,
        5.626374455440511e-8,
        0.016108284690968342,
        0.8649051043939321
      ]
    }
  ],
  "skins": [
    {
      "inverseBindMatrices": 6,
      "skeleton": 3,
      "joints": [
        3,
        4,
        5,
        6,
        7,
        8,
        9,
        10,
        11,
        12,
        13,
        14,
        15,
        16,
        17,
        18,
        19,
        20,
        21,
        22,
        23,
        24,
        25,
        26
      ]
    }
  ],
  "scenes": [
    {
      "name": "AuxScene",
      "nodes": [
        0
      ]
    }
  ],
  "scene": 0,
  "extensionsUsed": [
    "KHR_materials_ior",
    "KHR_materials_specular"
  ]
}